<svg xmlns="http://www.w3.org/2000/svg" xmlns:xlink="http://www.w3.org/1999/xlink" width="24" height="24" viewBox="0 0 24 24">
    <defs>
        <path id="r6w51o9y7a" d="M0 0H24V24H0z"/>
    </defs>
    <g fill="none" fill-rule="evenodd">
        <g>
            <mask id="g6e71iv4sb" fill="#fff">
                <use xlink:href="#r6w51o9y7a"/>
            </mask>
            <g mask="url(#g6e71iv4sb)">
                <g>
                    <g>
                        <path fill="#fff" fill-rule="nonzero" d="M15.52 12.542c-.687-.854-1.082-1.917-1.082-3.021V7.396c0-2.521-1.771-4.646-4.146-5.167v-1c0-.625-.5-1.125-1.125-1.125s-1.125.5-1.125 1.125v1c-2.375.521-4.146 2.625-4.146 5.167V9.52c0 1.104-.375 2.166-1.083 3.02l-.938 1.146c-.646.792-.083 2 .938 2H15.5c1.02 0 1.604-1.187.938-2l-.917-1.145zM2.02 6.875c.126-1.73.876-3.375 2.147-4.604.375-.375.375-.958.02-1.333C3.833.563 3.23.563 2.854.916 1.25 2.479.292 4.542.125 6.729c-.042.521.354.98.875 1h.063c.5.021.916-.354.958-.854zM15.5.917c-.375-.355-.98-.355-1.333.02-.375.375-.354.98.02 1.334 1.25 1.229 2.021 2.875 2.146 4.604.042.5.459.875.938.875h.062c.521-.042.917-.48.875-1-.166-2.208-1.125-4.27-2.708-5.833zM9.167 19.896c1.5 0 2.708-1.209 2.708-2.709H6.458c0 1.5 1.209 2.709 2.709 2.709z" transform="translate(3 2)"/>
                    </g>
                    <path d="M-3 -2H21V22H-3z" transform="translate(3 2)"/>
                </g>
            </g>
        </g>
    </g>
</svg>
