<svg xmlns="http://www.w3.org/2000/svg" xmlns:xlink="http://www.w3.org/1999/xlink" width="25" height="25" viewBox="0 0 25 25">
    <defs>
        <path id="g2o91tdava" d="M0 0H12.5V12.5H0z"/>
    </defs>
    <g fill="none" fill-rule="evenodd">
        <g>
            <g>
                <g>
                    <g fill="#FFF" stroke="#C5C5C5" stroke-width=".5" transform="translate(-284 -193) translate(104 178) translate(180 15)">
                        <circle cx="12.5" cy="12.5" r="12.5"/>
                    </g>
                    <g transform="translate(-284 -193) translate(104 178) translate(180 15) translate(6.25 6.25)">
                        <mask id="wtr7xvegmb" fill="#fff">
                            <use xlink:href="#g2o91tdava"/>
                        </mask>
                        <g mask="url(#wtr7xvegmb)">
                            <g>
                                <g>
                                    <path fill="#000" fill-rule="nonzero" d="M8.084 6.532c-.358-.445-.564-.998-.564-1.573V3.852c0-1.313-.923-2.42-2.16-2.691v-.52c0-.326-.26-.587-.586-.587-.325 0-.586.26-.586.586v.521C2.951 1.432 2.03 2.528 2.03 3.852v1.107c0 .575-.195 1.128-.564 1.573l-.488.597C.64 7.54.933 8.17 1.465 8.17h6.608c.532 0 .835-.619.488-1.042l-.477-.597zM1.053 3.581c.065-.9.455-1.758 1.117-2.398.195-.196.195-.5.011-.695-.184-.195-.5-.195-.694-.01C.65 1.29.152 2.364.065 3.504c-.022.271.185.51.456.52h.032c.26.011.478-.184.5-.444zM8.073.477c-.195-.184-.51-.184-.695.011-.195.196-.184.51.011.695.651.64 1.053 1.497 1.118 2.398.022.26.239.455.488.455h.033c.271-.021.477-.25.456-.52-.087-1.15-.586-2.225-1.411-3.039zm-3.299 9.885c.782 0 1.41-.629 1.41-1.41h-2.82c0 .781.63 1.41 1.41 1.41z" transform="translate(1.563 1.042)"/>
                                </g>
                                <path fill="#A1A1A1" d="M-1.563 -1.042H10.937V11.458H-1.563z" transform="translate(1.563 1.042)"/>
                            </g>
                        </g>
                    </g>
                </g>
            </g>
        </g>
    </g>
</svg>
