<?xml version="1.0" encoding="UTF-8"?>
<svg xmlns="http://www.w3.org/2000/svg" xmlns:xlink="http://www.w3.org/1999/xlink" viewBox="0 0 64 64" width="64px" height="64px">
<g id="surface1416957">
<path style=" stroke:none;fill-rule:nonzero;fill:rgb(100%,100%,100%);fill-opacity:1;" d="M 31.5 7.101562 L 7.5 15.601562 C 6.898438 15.800781 6.5 16.398438 6.5 17 L 6.5 47 C 6.5 47.648438 6.898438 48.199219 7.5 48.398438 L 31.5 56.898438 C 31.648438 56.949219 31.851562 57 32 57 C 32.101562 57 32.148438 57 32.25 57 L 32.300781 57 C 32.351562 57 32.398438 56.949219 32.449219 56.949219 L 56.449219 48.449219 C 57.050781 48.25 57.449219 47.648438 57.449219 47.050781 L 57.449219 16.949219 C 57.449219 16.898438 57.449219 16.800781 57.449219 16.75 L 57.449219 16.699219 C 57.351562 16.199219 57 15.75 56.5 15.601562 L 44.5 11.351562 L 44.449219 11.351562 C 44.148438 11.25 43.75 11.199219 43.398438 11.351562 L 20 19.601562 C 19.398438 19.800781 19 20.398438 19 21 L 19 26.5 C 19 27.351562 19.648438 28 20.5 28 C 21.351562 28 22 27.351562 22 26.5 L 22 22.050781 L 43.898438 14.300781 L 51.5 17 L 31.5 24.101562 C 30.898438 24.300781 30.5 24.851562 30.5 25.5 C 30.5 25.5 30.5 25.5 30.5 25.550781 L 30.5 53.449219 L 9.5 45.949219 L 9.5 18.050781 L 32.5 9.898438 C 33.300781 9.601562 33.699219 8.75 33.398438 8 C 33.148438 7.199219 32.300781 6.800781 31.5 7.101562 Z M 33.5 26.550781 L 54.5 19.101562 L 54.5 45.898438 L 33.5 53.351562 Z M 33.5 26.550781 "/>
</g>
</svg>
