<svg xmlns="http://www.w3.org/2000/svg" xmlns:xlink="http://www.w3.org/1999/xlink" width="24" height="24" viewBox="0 0 24 24">
    <defs>
        <path id="q8igamcjna" d="M0 0H24V24H0z"/>
    </defs>
    <g fill="none" fill-rule="evenodd">
        <g>
            <mask id="x1rn5jqx0b" fill="#fff">
                <use xlink:href="#q8igamcjna"/>
            </mask>
            <g mask="url(#x1rn5jqx0b)">
                <g>
                    <g>
                        <path fill="#fff" fill-rule="nonzero" d="M10 0C4.477 0 0 4.477 0 10s4.477 10 10 10 10-4.477 10-10c0-2.652-1.054-5.196-2.929-7.071C15.196 1.054 12.652 0 10 0zm.2 15.3c-.442.009-.846-.25-1.02-.657-.176-.406-.088-.877.222-1.193.31-.316.78-.412 1.189-.245.409.168.676.567.675 1.009.003.593-.473 1.078-1.066 1.086zm2.512-6.612c-.348.78-.927 1.435-1.66 1.874-.097.044-.155.146-.144.252v1.03H9.234c0-.05-.012-.1-.012-.152v-1.654c-.01-.094.047-.183.138-.212.576-.245 1.08-.634 1.462-1.13.202-.264.342-.57.41-.896.134-.597-.226-1.193-.816-1.354-.728-.2-1.45.148-1.628.81-.026.102-.04.2-.06.322H7.02c.028-.25.07-.5.124-.746.337-1.19 1.386-2.038 2.62-2.12 1.413-.13 2.72.76 3.118 2.122.172.618.112 1.278-.17 1.854z" transform="translate(2 2)"/>
                    </g>
                    <path d="M-2 -2H22V22H-2z" transform="translate(2 2)"/>
                </g>
            </g>
        </g>
    </g>
</svg>
